<svg width="450" height="273" viewBox="0 0 450 273" fill="none" xmlns="http://www.w3.org/2000/svg">
  <path
    d="M251.224 35.1962L174.524 112.726H185.324L256.724 40.7862C256.924 40.5862 257.024 40.1862 256.724 39.8862L252.124 35.3862C251.924 34.9862 251.524 34.9862 251.224 35.1862V35.1962Z"
    fill="#FF6136" />
  <path
    d="M175.924 56.2762L230.824 0.826172H220.024L170.524 50.7862C170.324 50.9862 170.224 51.3862 170.524 51.6862L175.024 56.1862C175.324 56.4862 175.724 56.4862 175.924 56.2862V56.2762Z"
    fill="#FF6136" />
  <path
    d="M262.124 46.1862L196.224 112.726H207.024L267.524 51.7762C267.724 51.4762 267.724 51.0762 267.524 50.8762L263.024 46.3762C262.824 45.8762 262.424 45.8762 262.124 46.1762V46.1862Z"
    fill="#FF6136" />
  <path
    d="M273.024 57.1762L218.024 112.726H228.824L278.524 62.6662C278.724 62.3662 278.724 61.9662 278.524 61.7662L274.024 57.2662C273.724 56.9662 273.324 56.9662 273.024 57.1662V57.1762Z"
    fill="#FF6136" />
  <path
    d="M181.424 62.5662L185.924 67.0662C186.224 67.2662 186.624 67.2662 186.824 67.0662L252.624 0.726196H241.824L181.424 61.6762C181.124 61.9762 181.124 62.3762 181.424 62.5762V62.5662Z"
    fill="#FF6136" />
  <path
    d="M192.224 73.5562L196.724 78.0562C197.024 78.2562 197.424 78.2562 197.624 78.0562L274.324 0.726196H263.524L192.224 72.6662C192.024 72.9662 192.024 73.3662 192.224 73.5662V73.5562Z"
    fill="#FF6136" />
  <path
    d="M58.1541 136.926C59.3541 136.926 59.6541 137.326 59.6541 138.426V174.926C59.6541 205.526 53.654 213.126 29.854 213.126C6.05405 213.126 0.154053 205.526 0.154053 174.926V138.426C0.154053 137.326 0.454053 136.926 1.65405 136.926H8.75405C9.95405 136.926 10.2541 137.326 10.2541 138.426V174.926C10.2541 198.426 14.254 204.226 29.854 204.226C45.454 204.226 49.5541 198.426 49.5541 174.926V138.426C49.5541 137.326 49.8541 136.926 51.0541 136.926H58.1541Z"
    fill="#2E3862" />
  <path
    d="M119.754 185.236C119.754 207.536 115.754 213.136 96.8541 213.136C91.8541 213.136 87.9541 213.036 83.6541 212.536V230.936C83.6541 231.936 83.1541 232.436 82.1541 232.436H75.5541C74.5541 232.436 74.0541 231.936 74.0541 230.936V160.836C74.0541 159.736 74.6541 159.336 75.6541 159.136C84.4541 157.736 88.8541 157.436 96.3541 157.436C115.754 157.436 119.754 163.136 119.754 185.236ZM83.6541 165.826V203.926C87.6541 204.426 92.3541 204.726 96.2541 204.726C108.654 204.726 110.154 200.926 110.154 185.326C110.154 169.726 108.754 165.826 96.4541 165.826H83.6541Z"
    fill="#2E3862" />
  <path
    d="M176.054 137.926C177.054 138.026 177.454 138.426 177.454 139.226V143.826C177.454 144.826 177.054 145.326 176.154 145.326H153.654C144.854 145.326 140.554 148.026 140.554 154.226V155.926C140.554 160.926 141.954 163.626 148.054 166.126L169.854 175.126C179.054 178.926 181.354 184.626 181.354 192.526V195.726C181.354 210.926 169.154 213.126 154.954 213.126C146.854 213.126 138.954 212.726 130.554 211.726C129.654 211.526 129.354 211.126 129.354 210.126V205.626C129.354 204.726 129.854 204.226 130.754 204.226H158.154C166.954 204.226 171.154 201.726 171.154 195.426V193.526C171.154 188.426 169.754 185.226 163.554 182.726L139.854 173.126C132.054 170.126 130.454 163.726 130.454 156.126V153.726C130.454 138.526 142.354 136.426 156.654 136.426C164.954 136.426 167.954 136.926 176.054 137.926Z"
    fill="#2E3862" />
  <path
    d="M202.954 141.926C202.954 145.726 200.954 147.826 197.054 147.826C193.154 147.826 191.154 145.726 191.154 141.926C191.154 138.126 193.254 136.126 197.054 136.126C200.854 136.126 202.954 138.126 202.954 141.926ZM200.354 157.926C201.354 157.926 201.854 158.426 201.854 159.426V211.126C201.854 212.126 201.354 212.626 200.354 212.626H193.754C192.754 212.626 192.254 212.126 192.254 211.126V159.426C192.254 158.426 192.754 157.926 193.754 157.926H200.354Z"
    fill="#2E3862" />
  <path
    d="M258.054 159.126C259.054 159.226 259.654 159.726 259.654 160.826V207.626C259.554 227.226 255.754 232.926 236.554 232.926C232.654 232.926 227.254 232.726 222.054 232.026C221.154 231.926 220.754 231.326 220.754 230.426V226.126C220.754 225.126 221.154 224.626 222.154 224.626H236.354C247.554 224.626 250.054 221.926 250.054 212.926V212.326C245.754 213.026 241.854 213.126 236.854 213.126C217.954 213.126 213.954 207.526 213.954 185.126C213.954 162.726 218.054 157.426 237.354 157.426C246.854 157.426 253.754 158.226 258.054 159.126ZM237.254 165.826C224.954 165.826 223.554 169.726 223.554 185.226C223.554 200.726 225.054 204.726 237.454 204.726C241.354 204.726 246.054 204.526 250.054 204.026V165.826H237.254Z"
    fill="#2E3862" />
  <path
    d="M318.754 180.836V211.136C318.754 212.136 318.054 212.636 317.054 212.636H310.654C309.654 212.636 309.154 212.136 309.154 211.136V181.636C309.154 166.336 306.154 165.836 296.554 165.836H282.854V211.136C282.854 212.136 282.354 212.636 281.354 212.636H274.754C273.754 212.636 273.254 212.136 273.254 211.136V160.636C273.254 159.336 273.754 159.236 274.754 159.036C282.554 157.536 290.754 157.436 295.554 157.436C313.454 157.436 318.754 159.636 318.754 180.836Z"
    fill="#2E3862" />
  <path
    d="M391.954 174.936C391.954 204.436 385.854 213.136 361.454 213.136C337.054 213.136 330.954 204.436 330.954 174.936C330.954 145.436 337.054 136.436 361.454 136.436C385.854 136.436 391.954 145.336 391.954 174.936ZM341.154 174.936C341.154 197.736 344.154 204.236 361.454 204.236C378.754 204.236 381.754 197.736 381.754 174.936C381.754 152.136 378.754 145.336 361.454 145.336C344.154 145.336 341.154 152.036 341.154 174.936Z"
    fill="#2E3862" />
  <path
    d="M449.954 180.836V211.136C449.954 212.136 449.254 212.636 448.254 212.636H441.854C440.854 212.636 440.354 212.136 440.354 211.136V181.636C440.354 166.336 437.354 165.836 427.754 165.836H414.054V211.136C414.054 212.136 413.554 212.636 412.554 212.636H405.954C404.954 212.636 404.454 212.136 404.454 211.136V160.636C404.454 159.336 404.954 159.236 405.954 159.036C413.754 157.536 421.954 157.436 426.754 157.436C444.654 157.436 449.954 159.636 449.954 180.836Z"
    fill="#2E3862" />
  <path
    d="M147.424 244.086C147.664 244.086 147.814 244.236 147.814 244.476V250.276C148.864 250.156 150.254 250.096 151.974 250.096C157.724 250.096 158.784 251.706 158.784 258.286C158.784 264.866 157.764 266.506 152.154 266.506C150.074 266.506 148.814 266.446 146.044 266.026C145.744 265.996 145.624 265.876 145.624 265.576V244.466C145.624 244.226 145.774 244.076 146.014 244.076H147.434L147.424 244.086ZM147.814 252.006V264.296C149.384 264.506 150.854 264.596 152.154 264.596C156.134 264.596 156.614 263.316 156.614 258.256C156.614 253.196 156.104 252.006 151.974 252.006H147.814Z"
    fill="#FF6136" />
  <path
    d="M175.354 250.256C175.594 250.256 175.744 250.406 175.744 250.646V265.086C175.714 270.806 174.534 272.346 169.024 272.346C167.334 272.346 166.254 272.286 164.804 272.136C164.564 272.106 164.444 271.956 164.444 271.716V270.796C164.444 270.556 164.564 270.436 164.804 270.436H169.024C172.724 270.436 173.544 269.516 173.544 266.506V266.266C171.944 266.476 170.744 266.506 169.234 266.506C163.634 266.506 162.604 264.866 162.604 258.286V250.636C162.604 250.396 162.724 250.246 162.964 250.246H164.384C164.654 250.246 164.774 250.396 164.774 250.636V258.226C164.774 263.316 165.254 264.596 169.234 264.596C170.504 264.596 171.974 264.536 173.544 264.326V250.636C173.544 250.396 173.694 250.246 173.934 250.246H175.354V250.256Z"
    fill="#FF6136" />
  <path
    d="M199.754 244.426C200.104 244.486 200.224 244.626 200.224 244.896V246.706C200.224 247.026 200.074 247.206 199.784 247.206H192.974C190.764 247.206 189.674 247.906 189.674 249.446V249.916C189.674 251.136 190.084 251.866 191.644 252.506L197.624 254.866C200.394 255.976 201.334 257.486 201.334 260.316V261.216C201.334 265.586 197.854 266.516 193.234 266.516C190.934 266.516 188.604 266.366 185.984 265.996C185.694 265.936 185.574 265.796 185.574 265.476V263.726C185.574 263.406 185.724 263.256 186.044 263.256H194.264C196.444 263.256 197.534 262.616 197.534 261.076V260.576C197.534 259.236 197.034 258.446 195.354 257.776L188.994 255.296C186.604 254.426 185.874 252.676 185.874 249.876V249.206C185.874 244.836 189.144 243.936 193.834 243.936C196.284 243.936 197.424 244.086 199.754 244.436V244.426Z"
    fill="#FF6136" />
  <path
    d="M219.374 244.076C219.664 244.076 219.844 244.226 219.844 244.516V246.906C219.844 247.196 219.664 247.346 219.374 247.346H208.474V253.876H218.434C218.724 253.876 218.874 254.026 218.874 254.316V256.616C218.874 256.906 218.724 257.056 218.434 257.056H208.474V263.116H219.374C219.664 263.116 219.844 263.266 219.844 263.556V265.946C219.844 266.236 219.664 266.386 219.374 266.386H205.114C204.824 266.386 204.674 266.236 204.674 265.946V244.536C204.674 244.246 204.824 244.096 205.114 244.096H219.374V244.076Z"
    fill="#FF6136" />
  <path
    d="M239.744 251.186C239.744 257.216 237.534 258.176 230.994 258.176H227.314V265.926C227.314 266.276 227.224 266.366 226.874 266.366H223.954C223.604 266.366 223.514 266.276 223.514 265.926V244.576C223.514 244.256 223.604 244.196 223.954 244.166C226.314 243.996 228.964 243.936 230.994 243.936C237.534 243.936 239.744 245.276 239.744 251.186ZM227.304 247.186V255.166H230.634C234.814 255.166 235.904 254.816 235.904 251.266C235.904 247.716 234.814 247.186 230.634 247.186H227.304Z"
    fill="#FF6136" />
  <path
    d="M258.254 244.076C258.544 244.076 258.694 244.226 258.694 244.516V246.906C258.694 247.196 258.544 247.346 258.254 247.346H251.804V265.926C251.804 266.216 251.654 266.366 251.364 266.366H248.474C248.184 266.366 248.034 266.216 248.034 265.926V247.346H241.614C241.324 247.346 241.174 247.196 241.174 246.906V244.516C241.174 244.226 241.324 244.076 241.614 244.076H258.264H258.254Z"
    fill="#FF6136" />
  <path
    d="M276.104 244.076C276.394 244.076 276.574 244.226 276.574 244.516V246.906C276.574 247.196 276.394 247.346 276.104 247.346H265.204V253.876H275.164C275.454 253.876 275.604 254.026 275.604 254.316V256.616C275.604 256.906 275.454 257.056 275.164 257.056H265.204V263.116H276.104C276.394 263.116 276.574 263.266 276.574 263.556V265.946C276.574 266.236 276.394 266.386 276.104 266.386H261.844C261.554 266.386 261.404 266.236 261.404 265.946V244.536C261.404 244.246 261.554 244.096 261.844 244.096H276.104V244.076Z"
    fill="#FF6136" />
  <path
    d="M297.744 255.256C297.744 263.936 295.854 266.496 288.494 266.496C281.134 266.496 279.244 263.936 279.244 255.256C279.244 246.576 281.164 243.926 288.494 243.926C295.824 243.926 297.744 246.516 297.744 255.256ZM283.064 255.256C283.064 261.406 283.884 263.236 288.484 263.236C293.084 263.236 293.934 261.406 293.934 255.256C293.934 249.106 293.084 247.186 288.484 247.186C283.884 247.186 283.064 249.046 283.064 255.256Z"
    fill="#FF6136" />
</svg>
